<svg xmlns="http://www.w3.org/2000/svg" xmlns:xlink="http://www.w3.org/1999/xlink" width="200" zoomAndPan="magnify" viewBox="0 0 150 149.999998" height="200" preserveAspectRatio="xMidYMid meet" version="1.0"><defs><clipPath id="cd87530d13"><path d="M 0 18.683594 L 150 18.683594 L 150 131.183594 L 0 131.183594 Z M 0 18.683594 " clip-rule="nonzero"/></clipPath></defs><path fill="#5669cf" d="M 146.71875 74.996094 C 146.71875 76.730469 146.605469 78.460938 146.375 80.1875 C 146.144531 81.914062 145.800781 83.628906 145.339844 85.328125 C 144.882812 87.03125 144.3125 88.710938 143.628906 90.371094 C 142.949219 92.03125 142.160156 93.664062 141.257812 95.265625 C 140.359375 96.871094 139.359375 98.4375 138.25 99.964844 C 137.144531 101.496094 135.9375 102.980469 134.632812 104.425781 C 133.328125 105.867188 131.929688 107.257812 130.4375 108.597656 C 128.949219 109.941406 127.375 111.222656 125.710938 112.449219 C 124.050781 113.675781 122.3125 114.839844 120.496094 115.941406 C 118.683594 117.042969 116.796875 118.074219 114.84375 119.039062 C 112.890625 120.003906 110.878906 120.894531 108.808594 121.710938 C 106.738281 122.527344 104.617188 123.269531 102.445312 123.933594 C 100.277344 124.597656 98.066406 125.179688 95.820312 125.683594 C 93.570312 126.1875 91.296875 126.609375 88.992188 126.945312 C 86.6875 127.285156 84.367188 127.539062 82.03125 127.710938 C 79.691406 127.878906 77.347656 127.964844 75 127.964844 C 72.652344 127.964844 70.308594 127.878906 67.96875 127.710938 C 65.632812 127.539062 63.3125 127.285156 61.007812 126.945312 C 58.703125 126.609375 56.429688 126.1875 54.179688 125.683594 C 51.933594 125.179688 49.722656 124.597656 47.554688 123.933594 C 45.382812 123.269531 43.261719 122.527344 41.191406 121.710938 C 39.121094 120.894531 37.109375 120.003906 35.15625 119.039062 C 33.203125 118.074219 31.316406 117.042969 29.503906 115.941406 C 27.6875 114.839844 25.949219 113.675781 24.289062 112.449219 C 22.625 111.222656 21.050781 109.941406 19.5625 108.597656 C 18.070312 107.257812 16.671875 105.867188 15.367188 104.425781 C 14.0625 102.980469 12.855469 101.496094 11.75 99.964844 C 10.640625 98.4375 9.640625 96.871094 8.742188 95.265625 C 7.839844 93.664062 7.050781 92.03125 6.371094 90.371094 C 5.6875 88.710938 5.117188 87.03125 4.660156 85.328125 C 4.199219 83.628906 3.855469 81.914062 3.625 80.1875 C 3.394531 78.460938 3.28125 76.730469 3.28125 74.996094 C 3.28125 73.261719 3.394531 71.53125 3.625 69.804688 C 3.855469 68.078125 4.199219 66.363281 4.660156 64.664062 C 5.117188 62.960938 5.6875 61.28125 6.371094 59.621094 C 7.050781 57.960938 7.839844 56.328125 8.742188 54.726562 C 9.640625 53.125 10.640625 51.558594 11.75 50.027344 C 12.855469 48.496094 14.0625 47.011719 15.367188 45.570312 C 16.671875 44.125 18.070312 42.734375 19.5625 41.394531 C 21.050781 40.050781 22.625 38.769531 24.289062 37.542969 C 25.949219 36.316406 27.6875 35.152344 29.503906 34.050781 C 31.316406 32.949219 33.203125 31.917969 35.15625 30.953125 C 37.109375 29.992188 39.121094 29.101562 41.191406 28.28125 C 43.261719 27.464844 45.382812 26.722656 47.554688 26.058594 C 49.722656 25.394531 51.933594 24.8125 54.179688 24.308594 C 56.429688 23.804688 58.703125 23.382812 61.007812 23.046875 C 63.3125 22.707031 65.632812 22.453125 67.96875 22.28125 C 70.308594 22.113281 72.652344 22.027344 75 22.027344 C 77.347656 22.027344 79.691406 22.113281 82.03125 22.28125 C 84.367188 22.453125 86.6875 22.707031 88.992188 23.046875 C 91.296875 23.382812 93.570312 23.804688 95.820312 24.308594 C 98.066406 24.8125 100.277344 25.394531 102.445312 26.058594 C 104.617188 26.722656 106.738281 27.464844 108.808594 28.28125 C 110.878906 29.101562 112.890625 29.992188 114.84375 30.953125 C 116.796875 31.917969 118.683594 32.949219 120.496094 34.050781 C 122.3125 35.152344 124.050781 36.316406 125.710938 37.542969 C 127.375 38.769531 128.949219 40.050781 130.4375 41.394531 C 131.929688 42.734375 133.328125 44.125 134.632812 45.570312 C 135.9375 47.011719 137.144531 48.496094 138.25 50.027344 C 139.359375 51.558594 140.359375 53.125 141.257812 54.726562 C 142.160156 56.328125 142.949219 57.960938 143.628906 59.621094 C 144.3125 61.28125 144.882812 62.960938 145.339844 64.664062 C 145.800781 66.363281 146.144531 68.078125 146.375 69.804688 C 146.605469 71.53125 146.71875 73.261719 146.71875 74.996094 Z M 146.71875 74.996094 " fill-opacity="1" fill-rule="nonzero"/><g clip-path="url(#cd87530d13)"><path fill="#5669cf" d="M 75 131.246094 C 33.75 131.246094 0 105.933594 0 74.996094 C 0 44.058594 33.75 18.746094 75 18.746094 C 116.25 18.746094 150 44.058594 150 74.996094 C 150 105.933594 116.25 131.246094 75 131.246094 Z M 75 25.777344 C 37.5 25.777344 7.03125 47.808594 7.03125 74.996094 C 7.03125 102.183594 37.5 124.214844 75 124.214844 C 112.5 124.214844 142.96875 102.183594 142.96875 74.996094 C 142.96875 47.808594 112.5 25.777344 75 25.777344 Z M 75 25.777344 " fill-opacity="1" fill-rule="nonzero"/></g></svg>