<svg xmlns="http://www.w3.org/2000/svg" xmlns:xlink="http://www.w3.org/1999/xlink" width="200" zoomAndPan="magnify" viewBox="0 0 150 149.999998" height="200" preserveAspectRatio="xMidYMid meet" version="1.0"><defs><clipPath id="597a566f8a"><path d="M 0 4 L 150 4 L 150 146.625 L 0 146.625 Z M 0 4 " clip-rule="nonzero"/></clipPath></defs><g clip-path="url(#597a566f8a)"><path fill="#5669cf" d="M 77.210938 4.660156 C 75.8125 4.003906 74.1875 4.003906 72.789062 4.660156 L 17.097656 30.792969 C 15.65625 31.46875 14.601562 32.769531 14.238281 34.320312 L 0.484375 93.039062 C 0.117188 94.617188 0.5 96.273438 1.523438 97.527344 L 40.0625 144.617188 C 41.054688 145.828125 42.53125 146.527344 44.09375 146.527344 L 105.90625 146.527344 C 107.46875 146.527344 108.945312 145.828125 109.9375 144.617188 L 148.476562 97.527344 C 149.5 96.273438 149.882812 94.617188 149.515625 93.039062 L 135.761719 34.320312 C 135.398438 32.769531 134.34375 31.46875 132.902344 30.792969 Z M 77.210938 4.660156 " fill-opacity="1" fill-rule="nonzero"/></g></svg>